# xmcd
#
# Track frame offsets:
#	150
#	14793
#	29548
#	51001
#	64515
#	72364
#	99414
#	112211
#	133668
#	159923
#	189437
#	203198
#
# Disc length: 2935 seconds
#
# Revision: 1
# Processed by: cddbd v1.5.1PL2 Copyright (c) Steve Scherf et al.
# Submitted via: audiograbber 1.83.01
#
DISCID=aa0b750c
DTITLE=Diverse - Die Csardasfuerstin
DYEAR=1900
DGENRE=
TTITLE0=Haia haia in den Bergen ist mein Heimatland
TTITLE1=Alles sind wir Sünder
TTITLE2=Sylvia ich will nur dich
TTITLE3=Aus ist s mit der Liebe
TTITLE4=Erstrahlen die Lichter
TTITLE5=O jag dem Glück nicht nach
TTITLE6=Liebschen mich reisst es
TTITLE7=Ich warte auf das grosse Wunder
TTITLE8=Nimm Zigeuner deine Geige
TTITLE9=Heller Jubel
TTITLE10=Mädel guck
TTITLE11=Tanzen moecht ich
EXTD=
EXTT0=
EXTT1=
EXTT2=
EXTT3=
EXTT4=
EXTT5=
EXTT6=
EXTT7=
EXTT8=
EXTT9=
EXTT10=
EXTT11=
PLAYORDER=
